# Blender v2.77 (sub 0) OBJ File: 'cube_01.blend'
# www.blender.org
o Cube
v 1.000000 -1.000000 -1.000000
v 1.000000 -1.000000 1.000000
v -1.000000 -1.000000 1.000000
v -1.000000 -1.000000 -1.000000
v 1.000000 1.000000 -0.999999
v 0.999999 1.000000 1.000001
v -1.000000 1.000000 1.000000
v -1.000000 1.000000 -1.000000
vt 0.5019 0.4981
vt 0.2520 0.7480
vt 0.2520 0.4981
vt 0.2520 -0.0018
vt 0.5019 0.2481
vt 0.2520 0.2481
vt 0.7519 0.9980
vt 0.5019 0.7480
vt 0.7519 0.7480
vt 0.2520 0.9980
vt 0.0020 0.7480
vt 0.0020 0.9980
vt 0.5019 -0.0018
vt 0.5019 0.9980
vn 0.5773 -0.5773 0.5773
vn -0.5773 -0.5773 -0.5773
vn 0.5773 -0.5773 -0.5773
vn -0.5773 0.5773 -0.5773
vn 0.5773 0.5773 0.5773
vn 0.5773 0.5773 -0.5773
vn -0.5773 -0.5773 0.5773
vn -0.5773 0.5773 0.5773
s 1
f 2/1/1 4/2/2 1/3/3
f 8/4/4 6/5/5 5/6/6
f 5/6/6 2/1/1 1/3/3
f 6/7/5 3/8/7 2/9/1
f 3/8/7 8/10/4 4/2/2
f 1/11/3 8/10/4 5/12/6
f 2/1/1 3/8/7 4/2/2
f 8/4/4 7/13/8 6/5/5
f 5/6/6 6/5/5 2/1/1
f 6/7/5 7/14/8 3/8/7
f 3/8/7 7/14/8 8/10/4
f 1/11/3 4/2/2 8/10/4
